<svg xmlns="http://www.w3.org/2000/svg" xmlns:xlink="http://www.w3.org/1999/xlink" fill="none" version="1.1" width="14" height="14" viewBox="0 0 14 14"><defs><clipPath id="master_svg0_148_1641"><rect x="0" y="0" width="14" height="14" rx="0"/></clipPath></defs><g clip-path="url(#master_svg0_148_1641)"><g transform="matrix(1,0,0,-1,0,28.6015625)"><g><path d="M10.9102,17.80078125Q10.4453,18.59375125,9.65234,19.05859125Q8.85938,19.55078125,7.875,19.55078125L6.125,19.55078125Q5.14062,19.55078125,4.34766,19.05859125Q3.55469,18.59375125,3.08984,17.80078125Q3.82812,16.98047125,4.8125,16.51562125Q5.82422,16.05078125,7,16.05078125Q8.17578,16.05078125,9.1875,16.51562125Q10.1719,16.98047125,10.9102,17.80078125ZM0,21.30078125Q0.0273438,23.21484125,0.929688,24.80078125Q1.85938,26.386681250000002,3.5,27.37108125Q5.16797,28.30078125,7,28.30078125Q8.83203,28.30078125,10.5,27.37108125Q12.1406,26.386681250000002,13.0703,24.80078125Q13.9727,23.21484125,14,21.30078125Q13.9727,19.38672125,13.0703,17.80078125Q12.1406,16.21484125,10.5,15.23046925Q8.83203,14.30078125,7,14.30078125Q5.16797,14.30078125,3.5,15.23046925Q1.85938,16.21484125,0.929688,17.80078125Q0.0273438,19.38672125,0,21.30078125ZM7,20.86328125Q8.12109,20.89062125,8.69531,21.84766125Q9.24219,22.83203125,8.69531,23.81640125Q8.12109,24.77348125,7,24.80078125Q5.87891,24.77348125,5.30469,23.81640125Q4.75781,22.83203125,5.30469,21.84766125Q5.87891,20.89062125,7,20.86328125Z" fill="#374151" fill-opacity="1" style="mix-blend-mode:passthrough"/></g></g></g></svg>