<svg xmlns="http://www.w3.org/2000/svg" xmlns:xlink="http://www.w3.org/1999/xlink" fill="none" version="1.1" width="12.25" height="14" viewBox="0 0 12.25 14"><defs><clipPath id="master_svg0_148_1631"><rect x="0" y="0" width="12.25" height="14" rx="0"/></clipPath></defs><g clip-path="url(#master_svg0_148_1631)"><g transform="matrix(1,0,0,-1,0,28.601531982421875)"><g><path d="M6.125096915283203,28.300765991210938Q5.750646915283203,28.300765991210938,5.509926915283203,28.05466599121094Q5.269196915283203,27.808565991210937,5.269196915283203,27.425765991210938L5.269196915283203,26.906265991210937Q3.771386915283203,26.578065991210938,2.835246915283203,25.402365991210935Q1.8723669152832032,24.226545991210937,1.8456169152832032,22.613265991210938L1.8456169152832032,22.093735991210938Q1.8188769152832032,20.124985991210938,0.5617779152832032,18.621075991210937L0.3478039152832031,18.374985991210938Q0.00009691528320313059,17.964825991210937,0.21407071528320312,17.445295991210937Q0.45479091528320315,16.953105991210936,0.9897259152832031,16.925765991210938L11.260456915283203,16.925765991210938Q11.795356915283204,16.953105991210936,12.036156915283204,17.445295991210937Q12.250056915283203,17.964825991210937,11.902356915283203,18.374985991210938L11.715156915283202,18.621075991210937Q10.431356915283203,20.097635991210936,10.404556915283203,22.093735991210938L10.404556915283203,22.613265991210938Q10.377856915283203,24.226545991210937,9.414946915283203,25.402365991210935Q8.478806915283203,26.578065991210938,6.980986915283203,26.906265991210937L6.980986915283203,27.425765991210938Q6.980986915283203,27.808565991210937,6.740266915283203,28.05466599121094Q6.4995469152832035,28.300765991210938,6.125096915283203,28.300765991210938ZM7.328696915283203,14.820296991210938Q7.836886915283203,15.339825991210937,7.836886915283203,16.050765991210938L6.125096915283203,16.050765991210938L4.413306915283203,16.050765991210938Q4.413306915283203,15.339825991210937,4.921496915283203,14.820296991210938Q5.429686915283203,14.300765991210938,6.125096915283203,14.300765991210938Q6.8205169152832035,14.300765991210938,7.328696915283203,14.820296991210938Z" fill="#FFFFFF" fill-opacity="1" style="mix-blend-mode:passthrough"/></g></g></g></svg>